<?xml version="1.0" standalone="no"?>
<!DOCTYPE svg PUBLIC "-//W3C//DTD SVG 20010904//EN"
 "http://www.w3.org/TR/2001/REC-SVG-20010904/DTD/svg10.dtd">
<svg version="1.0" xmlns="http://www.w3.org/2000/svg"
 width="300.000000pt" height="300.000000pt" viewBox="0 0 300.000000 300.000000"
 preserveAspectRatio="xMidYMid meet">
<g transform="translate(0.000000,300.000000) scale(0.100000,-0.100000)"
fill="#d27345" stroke="none">
<path d="M20 2585 l0 -385 650 0 650 0 0 385 0 385 -650 0 -650 0 0 -385z"/>
<path d="M840 1505 l0 -385 650 0 650 0 0 385 0 385 -650 0 -650 0 0 -385z"/>
<path d="M1660 425 l0 -385 650 0 650 0 0 385 0 385 -650 0 -650 0 0 -385z"/>
</g>
</svg>
