<?xml version="1.0" standalone="no"?>
<!DOCTYPE svg PUBLIC "-//W3C//DTD SVG 20010904//EN"
 "http://www.w3.org/TR/2001/REC-SVG-20010904/DTD/svg10.dtd">
<svg version="1.0" xmlns="http://www.w3.org/2000/svg"
 width="300.000000pt" height="300.000000pt" viewBox="0 0 300.000000 300.000000"
 preserveAspectRatio="xMidYMid meet">
<g transform="translate(0.000000,300.000000) scale(0.100000,-0.100000)"
fill="#d27345" stroke="none">
<path d="M30 1515 l0 -1465 395 0 395 0 0 1465 0 1465 -395 0 -395 0 0 -1465z"/>
<path d="M1100 1515 l0 -1465 395 0 395 0 0 1465 0 1465 -395 0 -395 0 0
-1465z"/>
<path d="M2170 1515 l0 -1465 395 0 395 0 0 1465 0 1465 -395 0 -395 0 0
-1465z"/>
</g>
</svg>
