<?xml version="1.0" standalone="no"?>
<!-- Created by Gewton Teixeira gewtont@gmail.com,gewtonj@br.ibm.com  -->
<!DOCTYPE svg PUBLIC "-//W3C//DTD SVG 1.1//EN" "http://www.w3.org/Graphics/SVG/1.1/DTD/svg11.dtd">
<svg id="pagerSchedulerSvgIcon" viewBox="0 0 500 500" version="1.1"
	xmlns="http://www.w3.org/2000/svg" xmlns:xlink="http://www.w3.org/1999/xlink" xml:space="preserve"
	x="0px" y="0px" width="500px" height="500px"
>
	<g id="pagerSchedulerIconLayer">
		<path d="M 23 87.63 C 23 58.7262 32.9453 49 62.5 49 L 437.5 49 C 467.0547 49 477 58.7262 477 87.63 L 477 324 L 23 297 L 23 87.63 Z" fill="#ee6723"/>
		<path d="M 477 242 L 477 454.3701 C 477 483.2738 467.0547 493 437.5 493 L 62.5 493 C 32.9453 493 23 483.2738 23 454.3701 L 23 143 L 477 242 Z" fill="#f69833"/>
		<path d="M 477 445 L 477 454.3701 C 477 470.3537 473.9587 480.4728 466.2418 486.3256 C 460.0039 491.0566 450.7111 493 437.5 493 L 62.5 493 C 32.9453 493 23 483.2738 23 454.3701 L 23 350 L 477 445 Z" fill="#fecf33"/>
		<g>
			<path d="M 59 25.75 C 59 12.7361 70.9049 1 84.1059 1 L 108.8941 1 C 122.0951 1 134 12.7361 134 25.75 L 134 75.25 C 134 88.2639 122.0951 100 108.8941 100 L 84.1059 100 C 70.9049 100 59 88.2639 59 75.25 L 59 25.75 Z" fill="#ffffff"/>
		</g>
		<g>
			<path d="M 67 30.75 C 67 20.3652 76.3652 11 86.75 11 L 106.25 11 C 116.6348 11 126 20.3652 126 30.75 L 126 70.25 C 126 80.6348 116.6348 90 106.25 90 L 86.75 90 C 76.3652 90 67 80.6348 67 70.25 L 67 30.75 Z" fill="#ee6723"/>
		</g>
		<g>
			<path d="M 366 25.75 C 366 12.7361 377.9048 1 391.1059 1 L 415.8941 1 C 429.0952 1 441 12.7361 441 25.75 L 441 75.25 C 441 88.2639 429.0952 100 415.8941 100 L 391.1059 100 C 377.9048 100 366 88.2639 366 75.25 L 366 25.75 Z" fill="#ffffff"/>
		</g>
		<g>
			<path d="M 374 30.75 C 374 20.3652 383.3651 11 393.75 11 L 413.25 11 C 423.6349 11 433 20.3652 433 30.75 L 433 70.25 C 433 80.6348 423.6349 90 413.25 90 L 393.75 90 C 383.3651 90 374 80.6348 374 70.25 L 374 30.75 Z" fill="#ee6723"/>
		</g>
		<path d="M 92 376.3438 L 117.3281 337 C 126.3438 343.7656 134.7031 348.7969 142.4219 352.0781 C 150.1406 355.3594 157.3438 357 164.0469 357 C 172.7656 357 179.7813 354.7344 185.0625 350.1875 C 190.3438 345.6563 193 339.7031 193 332.3594 C 193 323.9531 189.3438 317.625 182.0625 313.375 C 174.7813 309.125 163.9844 307 149.7031 307 L 144 307 L 144 271 C 160.1875 270.3125 172.2344 267.6094 180.1406 262.8906 C 188.0469 258.1875 192 251.3125 192 242.2813 C 192 236.0313 189.9688 230.9219 185.9375 226.9531 C 181.8906 222.9844 176.7031 221 170.3906 221 C 164.7344 221 158.6563 222.7969 152.1406 226.3906 C 145.6094 229.9844 138.4531 235.5313 130.6719 243 L 104 214.6875 C 113.8906 202.375 124.4844 193.1719 135.7813 187.1094 C 147.0781 181.0469 159.2344 178 172.2344 178 C 191.1406 178 206.8281 183.9219 219.2969 195.7656 C 231.7656 207.6094 238 222.4219 238 240.2031 C 238 249.8281 235.8281 258.5781 231.5156 266.4375 C 227.2031 274.3125 221.0156 280.75 212.9531 285.75 C 222.5156 290.4219 229.9219 297.2344 235.1563 306.1875 C 240.375 315.1406 243 325.5469 243 337.4219 C 243 357.4688 235.9531 373.75 221.8906 386.25 C 207.8281 398.7344 189.4531 405 166.7656 405 C 153.625 405 140.5313 402.5 127.4844 397.5469 C 114.4375 392.5781 102.6094 385.5 92 376.3438 ZM 386 398 L 339 398 L 339 225 L 302 225 L 308.8438 186 L 386 186 L 386 398 ZM 79 151 L 79 415.6685 C 79 436.0135 86.9591 444 107.2343 444 L 392.7657 444 C 413.0409 444 421 436.0135 421 415.6685 L 421 151 L 79 151 Z" fill="#ffffff"/>
	</g>
</svg>