<?xml version="1.0" standalone="no"?>
<!DOCTYPE svg PUBLIC "-//W3C//DTD SVG 20010904//EN"
 "http://www.w3.org/TR/2001/REC-SVG-20010904/DTD/svg10.dtd">
<svg version="1.0" xmlns="http://www.w3.org/2000/svg"
 width="300.000000pt" height="300.000000pt" viewBox="0 0 300.000000 300.000000"
 preserveAspectRatio="xMidYMid meet">
<metadata>
Created by potrace 1.15, written by Peter Selinger 2001-2017
</metadata>
<g transform="translate(0.000000,300.000000) scale(0.100000,-0.100000)"
fill="#000000" stroke="none">
<path d="M1975 2201 c-160 -46 -300 -158 -494 -393 -35 -43 -67 -78 -70 -78
-4 0 -35 32 -70 70 -119 133 -257 227 -395 269 -92 28 -239 29 -328 1 -276
-85 -439 -399 -373 -715 43 -204 204 -382 390 -431 65 -18 226 -18 293 0 137
37 271 124 402 263 68 71 84 84 94 72 7 -8 49 -57 94 -110 176 -208 317 -314
468 -354 69 -18 235 -20 302 -4 26 6 89 31 141 55 78 36 106 57 170 121 123
123 168 244 178 478 9 211 -25 382 -98 497 -71 111 -237 226 -375 262 -84 22
-250 20 -329 -3z m317 -273 c151 -70 238 -228 238 -433 0 -89 -23 -195 -55
-262 -35 -71 -128 -155 -202 -183 -84 -31 -216 -26 -293 12 -105 52 -235 183
-361 365 l-51 74 43 57 c95 127 221 267 292 324 21 17 64 42 95 55 81 33 211
30 294 -9z m-1357 -127 c71 -35 193 -146 279 -253 l38 -48 -38 -47 c-105 -131
-236 -235 -335 -268 -64 -22 -168 -17 -224 10 -97 47 -163 153 -172 279 -12
162 52 288 177 346 36 16 61 20 125 18 68 -3 91 -8 150 -37z"/>
</g>
</svg>
