<?xml version="1.0" standalone="no"?>
<!DOCTYPE svg PUBLIC "-//W3C//DTD SVG 20010904//EN"
 "http://www.w3.org/TR/2001/REC-SVG-20010904/DTD/svg10.dtd">
<svg version="1.0" xmlns="http://www.w3.org/2000/svg"
 width="300.000000pt" height="300.000000pt" viewBox="0 0 300.000000 300.000000"
 preserveAspectRatio="xMidYMid meet">
<metadata>
Created by potrace 1.15, written by Peter Selinger 2001-2017
</metadata>
<g transform="translate(0.000000,300.000000) scale(0.100000,-0.100000)"
fill="#000000" stroke="none">
<path d="M542 2507 l-232 -232 0 -983 c0 -540 2 -982 5 -982 2 0 144 79 315
176 l310 176 0 299 0 299 625 0 625 0 0 -295 0 -295 315 0 315 0 0 803 0 802
-233 233 -232 232 -790 0 -790 0 -233 -233z m1648 -512 l0 -275 -625 0 -625 0
0 275 0 275 625 0 625 0 0 -275z"/>
</g>
</svg>
